{"title":"Tangled 2010 TS XViD-LU","uid":6036797,"size":739009254,"categoryP":"video","categoryS":"movies","magnet":"?xt=urn:btih:d009fb078edc21b3b6a808845539e208bbb625b1&amp;dn=Tangled+2010+TS+XViD-LU&amp;tr=udp%3A%2F%2Ftracker.openbittorrent.com%3A80&amp;tr=udp%3A%2F%2Fopen.demonii.com%3A1337&amp;tr=udp%3A%2F%2Ftracker.coppersurfer.tk%3A6969&amp;tr=udp%3A%2F%2Fexodus.desync.com%3A6969","seeders":0,"leechers":0,"uploader":"SAFCukO09","files":54,"time":1292256220,"description":"\n\n[center]Genre : Animation / Comedy / Family / Fantasy\n\nPlot : The long-haired Princess Rapunzel has spent her entire life in a tower, but when she falls in love with a bandit who was passing by she must venture into the outside world for the first time to find him.\n\nInfomation\nGeneral\nComplete name                    : Tangled.2010.TS.Lu.avi\nFormat                           : AVI\nFormat/Info                      : Audio Video Interleave\nFile size                        : 695 MiB\nDuration                         : 1h 29mn\nOverall bit rate                 : 1 080 Kbps\nWriting application              : VirtualDubMod 1.5.10.3 | www.virtualdub-fr.org || (build 2550/release)\nWriting library                  : VirtualDub build 32706/release\n\nVideo\nID                               : 0\nFormat                           : MPEG-4 Visual\nFormat profile                   : Advanced Simple@L4\nFormat settings, BVOP            : Yes\nFormat settings, QPel            : No\nFormat settings, GMC             : No warppoints\nFormat settings, Matrix          : Default (H.263)\nMuxing mode                      : Packed bitstream\nCodec ID                         : XVID\nCodec ID/Hint                    : XviD\nDuration                         : 1h 29mn\nBit rate                         : 942 Kbps\nWidth                            : 720 pixels\nHeight                           : 336 pixels\nDisplay aspect ratio             : 2.2:1\nFrame rate                       : 25.000 fps\nColor space                      : YUV\nChroma subsampling               : 4:2:0\nBit depth                        : 8 bits\nScan type                        : Progressive\nCompression mode                 : Lossy\nBits/(Pixel*Frame)               : 0.156\nStream size                      : 606 MiB (87%)\nWriting library                  : XviD 1.2.1 (UTC 2008-12-04)\n\nAudio\nID                               : 1\nFormat                           : MPEG Audio\nFormat version                   : Version 1\nFormat profile                   : Layer 3\nMode                             : Joint stereo\nMode extension                   : MS Stereo\nCodec ID                         : 55\nCodec ID/Hint                    : MP3\nDuration                         : 1h 29mn\nBit rate mode                    : Constant\nBit rate                         : 128 Kbps\nChannel(s)                       : 2 channels\nSampling rate                    : 48.0 KHz\nCompression mode                 : Lossy\nStream size                      : 82.4 MiB (12%)\nAlignment                        : Split accross interleaves\nInterleave, duration             : 40 ms (1.00 video frame)\nInterleave, preload duration     : 500 ms\n\nNotes\nVideo is from ELEKTRI4KA thanks\nJust added some filters about it.\nAudio is mine Lu enjoy its line.\n &lt;a href=&quot;\nhttp://www.imdb.com/title/tt0398286/&quot; rel=&quot;nofollow&quot; target=&quot;_NEW&quot;&gt;\nhttp://www.imdb.com/title/tt0398286/&lt;/a&gt;\n[/center]\n\n[center][img]http://img442.imageshack.us/img442/1638/vlcsnap986448.png[/img][/center]\n[center][img]http://img694.imageshack.us/img694/6128/vlcsnap986113.png[/img][/center]\n[center][img]http://img137.imageshack.us/img137/9616/vlcsnap986772.png[/img][/center]\n\n","torrent":{"xt":"urn:btih:d009fb078edc21b3b6a808845539e208bbb625b1","amp;dn":"Tangled+2010+TS+XViD-LU","amp;tr":["udp%3A%2F%2Ftracker.openbittorrent.com%3A80","udp%3A%2F%2Fopen.demonii.com%3A1337","udp%3A%2F%2Ftracker.coppersurfer.tk%3A6969","udp%3A%2F%2Fexodus.desync.com%3A6969"],"infoHash":"d009fb078edc21b3b6a808845539e208bbb625b1","infoHashBuffer":{"type":"Buffer","data":[208,9,251,7,142,220,33,179,182,168,8,132,85,57,226,8,187,182,37,177]},"announce":[],"urlList":[]}}